<?xml version="1.0" encoding="iso-8859-1"?>
<!-- Uploaded to: SVG Repo, www.svgrepo.com, Generator: SVG Repo Mixer Tools -->
<svg fill="#000000" version="1.1" id="Layer_1" xmlns="http://www.w3.org/2000/svg" xmlns:xlink="http://www.w3.org/1999/xlink" 
	 viewBox="0 0 496 496" xml:space="preserve">
<g>
	<g>
		<g>
			<path d="M152,104c13.232,0,24-10.768,24-24s-10.768-24-24-24s-24,10.768-24,24S138.768,104,152,104z M152,72c4.416,0,8,3.584,8,8
				s-3.584,8-8,8s-8-3.584-8-8S147.584,72,152,72z"/>
			<path d="M200,32h-96v96h96V32z M184,112h-64V48h64V112z"/>
			<rect x="32" y="144" width="240" height="16"/>
			<rect x="32" y="176" width="240" height="16"/>
			<rect x="32" y="208" width="240" height="16"/>
			<rect x="32" y="240" width="240" height="16"/>
			<rect x="32" y="272" width="80" height="16"/>
			<rect x="128" y="272" width="16" height="16"/>
			<rect x="200" y="384" width="72" height="16"/>
			<path d="M496,224v-80h-58.6l10.248-76.832c0.232-1.752,0.352-3.52,0.352-5.296V40c0-22.056-17.944-40-40-40
				c-22.056,0-40,17.944-40,40v21.872c0,1.776,0.12,3.536,0.352,5.28L378.6,144H368V64h-32V32h-68.688l-32-32H0v432h32v32h32v32h304
				V352h96c17.648,0,32-14.352,32-32s-14.352-32-32-32h-96v-64H496z M384,40c0-13.232,10.768-24,24-24s24,10.768,24,24v21.872
				c0,1.056-0.072,2.12-0.208,3.168L417,176h-17.992l-14.8-110.96c-0.136-1.048-0.208-2.112-0.208-3.168V40z M336,80h16v64h-16V80z
				 M336,224h16v64h-16V224z M320,48v96v80v64h-16V68.688L283.312,48H320z M240,27.312L276.688,64H240V27.312z M16,416V16h208v64h64
				v208h-74.216l-53.328,32l53.328,32H288v64H16z M216,305.328v29.344L191.544,320L216,305.328z M48,448v-16h256v-80h16v96H48z
				 M352,480H80v-16h256V352h16V480z M456,304h8c8.824,0,16,7.176,16,16c0,8.824-7.176,16-16,16h-8V304z M424,304h16v32h-16V304z
				 M408,304v32H232v-32H408z M336,208v-48h44.728l2.136,16H368v16h80v-16h-14.864l2.136-16H480v48H336z"/>
		</g>
	</g>
</g>
</svg>